<svg width="12" height="8" viewBox="0 0 12 8" fill="none" xmlns="http://www.w3.org/2000/svg">
<g clip-path="url(#clip0_2129_422)">
<path opacity="0.4" d="M6.00254 5.14774L1.51317 0.690257C1.38985 0.56752 1.22498 0.5 1.04917 0.5C0.873268 0.5 0.708488 0.56752 0.584976 0.690257L0.191805 1.08085C0.0680975 1.20339 2.0817e-09 1.3672 0 1.54177C-2.0816e-09 1.71633 0.0680975 1.87995 0.191805 2.00259L5.53678 7.30993C5.66068 7.43306 5.82624 7.50048 6.00224 7.5C6.17902 7.50048 6.34439 7.43316 6.46839 7.30993L11.8082 2.00753C11.9319 1.88489 12 1.72127 12 1.54661C12 1.37205 11.9319 1.20843 11.8082 1.08569L11.415 0.695198C11.1591 0.441102 10.7425 0.441102 10.4867 0.695198L6.00254 5.14774Z" fill="white"/>
</g>
<defs>
<clipPath id="clip0_2129_422">
<rect width="12" height="8" fill="white"/>
</clipPath>
</defs>
</svg>
